<svg version="1.1" viewBox="0 0 52 52" xmlns="http://www.w3.org/2000/svg" xmlns:xlink="http://www.w3.org/1999/xlink">
 <defs>
  <linearGradient id="linearGradient2269" x1="30.1" x2="17.7" y1="13.4" y2="12.3" gradientTransform="translate(2.46 22.3)" gradientUnits="userSpaceOnUse">
   <stop stop-color="#fbf0e0" offset="0"/>
   <stop stop-color="#f0ce99" offset="1"/>
  </linearGradient>
  <linearGradient id="linearGradient2274" x1="36.3" x2="47.1" y1="14.7" y2="15.3" gradientTransform="translate(2.46 22.3)" gradientUnits="userSpaceOnUse">
   <stop stop-color="#de9523" offset="0"/>
   <stop stop-color="#a36d18" offset="1"/>
  </linearGradient>
  <linearGradient id="linearGradient2277" x1="25.4" x2="24.1" y1="24.7" y2="16.2" gradientTransform="matrix(1 0 0 .986 2.46 22.6)" gradientUnits="userSpaceOnUse">
   <stop stop-color="#e9b96e" offset="0"/>
   <stop stop-color="#f1d19e" offset="1"/>
  </linearGradient>
  <linearGradient id="linearGradient2280" x1="16.1" x2="34.2" y1="12.6" y2="12.6" gradientTransform="matrix(1 0 0 1.04 2.46 22.3)" gradientUnits="userSpaceOnUse">
   <stop stop-color="#a36d18" offset="0"/>
   <stop stop-color="#d79020" offset="1"/>
  </linearGradient>
  <linearGradient id="linearGradient2282" x1="21.9" x2="22.1" y1="9.76" y2="16" gradientTransform="translate(2.46 22.3)" gradientUnits="userSpaceOnUse">
   <stop stop-color="#a0670c" offset="0"/>
   <stop stop-color="#a0670c" stop-opacity="0" offset="1"/>
  </linearGradient>
  <linearGradient id="linearGradient2285" x1="18.7" x2="30" y1="19.9" y2="47.4" gradientTransform="translate(2.46 22.3)" gradientUnits="userSpaceOnUse">
   <stop stop-color="#fff" offset="0"/>
   <stop stop-color="#fff" stop-opacity=".686" offset="1"/>
  </linearGradient>
  <linearGradient id="linearGradient2288" x1="25" x2="25" y1="34" y2="22.6" gradientTransform="translate(2.46 22.3)" gradientUnits="userSpaceOnUse">
   <stop stop-color="#eaba6f" offset="0"/>
   <stop stop-color="#b97a1b" offset="1"/>
  </linearGradient>
  <linearGradient id="f" x1="84.2" x2="91" y1="-3.6" y2="41.1" gradientTransform="matrix(.241 0 0 .508 12.5 6.81)" gradientUnits="userSpaceOnUse">
   <stop stop-color="#ECE9FF" offset="0"/>
   <stop stop-color="#A17CFF" offset=".29"/>
   <stop stop-color="#673AB7" offset=".61"/>
   <stop stop-color="#3F1D93" offset=".89"/>
  </linearGradient>
  <linearGradient id="g" x1="59.7" x2="65.7" y1=".00845" y2="30" gradientTransform="matrix(.269 0 0 .456 12.5 6.81)" gradientUnits="userSpaceOnUse">
   <stop stop-color="#ECE9FF" offset="0"/>
   <stop stop-color="#A17CFF" offset=".29"/>
   <stop stop-color="#673AB7" offset=".74"/>
   <stop stop-color="#3F1D93" offset="1"/>
  </linearGradient>
  <linearGradient id="k" x1="69" x2="17" y1="11.8" y2="66.2" gradientTransform="matrix(.345 0 0 .356 12.5 6.81)" gradientUnits="userSpaceOnUse">
   <stop stop-color="#D7C4FF" stop-opacity=".5" offset=".24"/>
   <stop stop-color="#A17CFF" stop-opacity="0" offset=".7"/>
  </linearGradient>
  <linearGradient id="l" x1="32.2" x2="25.1" y1="33.1" y2="60.6" gradientTransform="matrix(.36 0 0 .34 12.5 6.81)" gradientUnits="userSpaceOnUse">
   <stop stop-color="#F3EFFF" stop-opacity=".9" offset="0"/>
   <stop stop-color="#D7C4FF" stop-opacity=".5" offset="1"/>
  </linearGradient>
  <linearGradient id="m" x1="95" x2="93.8" y1="-.824" y2="57.5" gradientTransform="matrix(.225 0 0 .545 12.5 6.81)" gradientUnits="userSpaceOnUse">
   <stop stop-color="#F3EFFF" offset="0"/>
   <stop stop-color="#A17CFF" stop-opacity="0" offset="1"/>
  </linearGradient>
  <linearGradient id="n" x1="56.1" x2="55.3" y1="-.637" y2="23.1" gradientTransform="matrix(.285 0 0 .429 12.5 6.81)" gradientUnits="userSpaceOnUse">
   <stop stop-color="#F3EFFF" offset="0"/>
   <stop stop-color="#ECE9FF" stop-opacity=".5" offset="1"/>
  </linearGradient>
  <linearGradient id="o" x1="58.3" x2="56.7" y1="25.3" y2="64.1" gradientTransform="matrix(.312 0 0 .393 12.5 6.81)" gradientUnits="userSpaceOnUse">
   <stop stop-color="#F3EFFF" offset="0"/>
   <stop stop-color="#A17CFF" stop-opacity="0" offset="1"/>
  </linearGradient>
  <linearGradient id="p" x1="23.7" x2="25.9" y1="33.1" y2="66.5" gradientTransform="matrix(.372 0 0 .329 12.5 6.81)" gradientUnits="userSpaceOnUse">
   <stop stop-color="#F3EFFF" stop-opacity=".8" offset="0"/>
   <stop stop-color="#D7C4FF" stop-opacity=".2" offset="1"/>
  </linearGradient>
  <linearGradient id="q" x1="29.2" x2="20.6" y1="13" y2="27" gradientTransform="matrix(.343 0 0 .357 12.5 6.81)" gradientUnits="userSpaceOnUse">
   <stop stop-color="#F3EFFF" stop-opacity=".8" offset="0"/>
   <stop stop-color="#D7C4FF" stop-opacity=".2" offset="1"/>
  </linearGradient>
  <linearGradient id="r" x1="18.5" x2="16.9" y1="29.4" y2="74.3" gradientTransform="matrix(.28 0 0 .438 12.5 6.81)" gradientUnits="userSpaceOnUse">
   <stop stop-color="#A17CFF" stop-opacity=".4" offset="0"/>
   <stop stop-color="#A17CFF" stop-opacity="0" offset="1"/>
  </linearGradient>
  <linearGradient id="s" x1="25.6" x2="25.6" y1="4.55" y2="57.4" gradientTransform="matrix(.278 0 0 .44 12.5 6.81)" gradientUnits="userSpaceOnUse">
   <stop stop-color="#F3EFFF" offset="0"/>
   <stop stop-color="#A17CFF" stop-opacity="0" offset="1"/>
  </linearGradient>
  <linearGradient id="t" x1="68.3" x2="65.1" y1="12.8" y2="89.9" gradientTransform="matrix(.296 0 0 .414 12.5 6.81)" gradientUnits="userSpaceOnUse">
   <stop stop-color="#F3EFFF" stop-opacity=".8" offset="0"/>
   <stop stop-color="#A17CFF" stop-opacity="0" offset="1"/>
  </linearGradient>
  <radialGradient id="a" cx="42.1" cy="31" r="22.6" gradientTransform="matrix(.35 0 0 .35 12.5 6.81)" gradientUnits="userSpaceOnUse">
   <stop stop-color="#FFC766" stop-opacity=".4" offset=".1"/>
   <stop stop-color="#FF8A1F" stop-opacity=".25" offset=".9"/>
  </radialGradient>
  <radialGradient id="b" cx="39.9" cy="41.4" r="19.3" fx="39.8" gradientTransform="matrix(.35 0 0 .35 12.5 6.81)" gradientUnits="userSpaceOnUse">
   <stop stop-color="#FF8A1F" stop-opacity="0" offset=".91"/>
   <stop stop-color="#FFC766" stop-opacity=".4" offset="1"/>
  </radialGradient>
  <radialGradient id="c" cx="61.2" cy="9.81" r="89.4" gradientTransform="matrix(.388 0 0 .315 12.5 6.81)" gradientUnits="userSpaceOnUse">
   <stop stop-color="#D7C4FF" offset="0"/>
   <stop stop-color="#A17CFF" offset=".26"/>
   <stop stop-color="#673AB7" offset=".53"/>
   <stop stop-color="#4A148C" offset=".86"/>
  </radialGradient>
  <radialGradient id="d" cx="34.5" cy="46.8" r="89.4" fx="34.7" gradientTransform="matrix(.388 0 0 .315 12.5 6.81)" gradientUnits="userSpaceOnUse">
   <stop stop-color="#1D0B36" stop-opacity=".8" offset=".3"/>
   <stop stop-color="#311B92" stop-opacity=".5" offset=".37"/>
   <stop stop-color="#4A148C" stop-opacity=".14" offset=".48"/>
   <stop stop-color="#3F1D93" stop-opacity="0" offset=".53"/>
  </radialGradient>
  <radialGradient id="e" cx="61.2" cy="-19.2" r="140" gradientTransform="matrix(.382 0 0 .321 12.5 6.81)" gradientUnits="userSpaceOnUse">
   <stop stop-color="#D7C4FF" offset="0"/>
   <stop stop-color="#7542E5" offset=".47"/>
   <stop stop-color="#4A148C" offset=".84"/>
   <stop stop-color="#311B92" offset="1"/>
  </radialGradient>
  <radialGradient id="h" cx="37.3" cy="5.56" r="28.4" gradientTransform="matrix(.35 0 0 .35 12.5 6.81)" gradientUnits="userSpaceOnUse">
   <stop stop-color="#A17CFF" offset="0"/>
   <stop stop-color="#673AB7" offset=".82"/>
  </radialGradient>
  <radialGradient id="i" cx="53" cy="21.2" r="85.4" gradientTransform="matrix(.37 0 0 .331 12.5 6.81)" gradientUnits="userSpaceOnUse">
   <stop stop-color="#D7C4FF" offset=".29"/>
   <stop stop-color="#7542E5" offset="1"/>
  </radialGradient>
  <radialGradient id="j" cx="36.1" cy="15.9" r="71.8" gradientTransform="matrix(.354 0 0 .347 12.5 6.81)" gradientUnits="userSpaceOnUse">
   <stop stop-color="#ECE9FF" offset=".18"/>
   <stop stop-color="#A17CFF" offset=".43"/>
   <stop stop-color="#4A148C" offset=".69"/>
  </radialGradient>
 </defs>
 <g transform="translate(0 -3)">
  <g transform="translate(0,-10)">
   <g>
    <path d="m11.2 38.9 5.05-6.81 18.8-0.101 5.22 6.77z" fill="url(#linearGradient2280)" fill-rule="evenodd" stroke="url(#linearGradient2282)"/>
    <path d="m16.1 32-3.98 6.72-9.13 4.38 8.11-8.91z" color="#000000" display="block" fill="#f8e8cf" stroke="#a0670c" stroke-linecap="round" stroke-linejoin="round"/>
    <path d="m35.3 31.9 4.68 6.92 9.03 4.38-8.11-8.91z" color="#000000" display="block" fill="url(#linearGradient2274)" stroke="#a0670c" stroke-linecap="round" stroke-linejoin="round"/>
   </g>
   <path d="m12.1 38.7 3.38-5.78 20.5-0.0752 3.84 5.85z" fill="none" opacity=".88" stroke="url(#linearGradient2269)" stroke-linecap="round" stroke-linejoin="round"/>
  </g>
  <g stroke-width=".35">
   <path d="m20.4 23.1 0.855 2.37 1.28 1.73 3.01 0.575 1.44 0.122 2.46-0.615 1.06-1.02z" fill="#6e1a00"/>
   <path d="m33.1 19.6-0.302-1-0.863-1.63-0.987-1.04-1.05-0.749-0.91-0.357-1.09-0.388-1.8-0.114-1.13 0.204-0.925 0.285-1.64 0.961-1.03 1.14-0.946 1.54-0.372 1.31-0.0696 1.98 0.355 1.35 0.783 1.54 0.552 0.744 0.763 0.7 0.953 0.645 1.18 0.511 1.97 0.231 1.03 0.0287 1.52-0.428 1.36-0.746 0.874-0.746 0.678-0.808 0.958-1.88 0.211-1.28z" fill="#6e1a00"/>
   <path d="m26.1 15.3-0.805 0.799 1.31 0.533 0.977-1.21z" fill="#ff7d1a"/>
   <path d="m26.7 16.6 2.54-0.0774-1.57-1.13z" fill="#d45100"/>
   <path d="m29 15.4-1.38 0.0084 1.57 1.13 1.45-0.0945z" fill="#c24400"/>
   <path d="m30.6 16.4-0.823-1.14 1.14 0.682z" fill="#e66200"/>
   <path d="m31.7 17.1-1.09-0.695 0.316-0.453z" fill="#962800"/>
   <path d="m30.6 16.4-0.182 0.778 0.997 0.399z" fill="#e66200"/>
   <path d="m30.6 16.4 1.09 0.695-0.275 0.481z" fill="#e66200"/>
   <path d="m29.2 16.5 1.45-0.0945-0.182 0.778z" fill="#d45100"/>
   <path d="m29.2 16.5-1.14 1.04 1.47 0.721z" fill="#ffbe2e"/>
   <path d="m26.7 16.6 2.54-0.0774-1.14 1.04z" fill="#ff9d0e"/>
   <path d="m30.5 17.2 0.692 1.34 0.304-0.945z" fill="#e66200"/>
   <path d="m31.2 18.5 0.304-0.945 0.726 1.73z" fill="#c24400"/>
   <path d="m31.5 17.6 1.11 0.81-0.38 0.916z" fill="#c24400"/>
   <g fill="#962800">
    <path d="m31.7 17.1 0.214-0.107 0.617 1.4z"/>
    <path d="m32.6 18.4 0.246 0.231-0.863-1.63z"/>
    <path d="m32.6 18.4-0.83-1.29-0.275 0.481zm-1.6-2.44 0.774 1.15 0.214-0.105"/>
   </g>
   <path d="m33.1 20.4-0.246-1.78 0.302 1-0.0595 0.783z" fill="#6e1a00"/>
   <path d="m32.6 18.4 0.493 2.02-0.246-1.78z" fill="#962800"/>
   <path d="m32.2 19.3 0.873 1.1-0.493-2.02z" fill="#962800"/>
   <g fill="#6e1a00">
    <path d="m33.1 20.4 0.0595-0.783 0.0598 2.01-0.116-1.22z"/>
    <path d="m32.9 22 0.262-0.362-0.116-1.22z"/>
    <path d="m33 22.9-0.209 0.101 0.421-1.38z"/>
    <path d="m32.7 23 0.421-1.38-0.262 0.362z"/>
   </g>
   <path d="m32.9 22 0.146-1.59-0.448 0.529z" fill="#962800"/>
   <path d="m32.7 23 0.159-1.02-0.865 1.45z" fill="#6e1a00"/>
   <path d="m32.2 19.3 0.873 1.1-0.448 0.529z" fill="#962800"/>
   <g fill="#6e1a00">
    <path d="m32.9 22-0.302-1.06-0.456 1.3z"/>
    <path d="m32 24.8 0.749-1.78-0.701 1.29z"/>
    <path d="m32 24.3 0.701-1.29-0.706 0.431z"/>
    <path d="m32.7 23-0.749 1.77 0.958-1.88zm-1.43 2.58 0.678-0.808 0.0483-0.481zm-0.875 0.746 0.875-0.746-0.924 0.425z"/>
   </g>
   <path d="m25.3 26.9-0.883 0.216 0.027-0.617z" fill="#c24400"/>
   <path d="m20.4 18.5 0.244-0.0903-0.616 1.4z" fill="#e66200"/>
   <path d="m20.1 19.8 0.466-0.0868 0.149-1.31z" fill="#d45100"/>
   <path d="m20.1 21.5-0.028-1.68 0.466-0.0868z" fill="#e66200"/>
   <path d="m30.5 17.2-0.937 1.07 1.63 0.27zm-8.18-1.1 1.2-0.819-1.07 0.531z" fill="#d45100"/>
   <path d="m22.4 15.8 1.64-0.961-0.574 0.43-1.07 0.531" fill="#ff7d1a"/>
   <path d="m23.5 15.3 1.5-0.715-0.925 0.285z" fill="#ff9d0e"/>
   <path d="m29.2 16.5 0.328 1.76 0.937-1.07zm-4.81-1.32 1.4-0.56-0.811-0.0728z" fill="#ff9d0e"/>
   <path d="m26.1 14.3-1.13 0.204 0.811 0.0728z" fill="#ffbe2e"/>
   <path d="m27.2 14.6-1.4 0.0136 0.323-0.277" fill="#ffde48"/>
   <path d="m29.8 15.3-0.814 0.0864 1.64 1.05zm-2.64-0.662 1.82 0.239-1.09-0.388z" fill="#d45100"/>
   <path d="m29.8 15.3-0.819-0.423 0.91 0.357z" fill="#e66200"/>
   <path d="m20.4 23.1 0.539 0.442-0.794-2.1zm7.42 4.18 0.472-1.11-1.72 0.462zm0.472-1.11 1.44 0.399 0.0872-1.11z" fill="#c24400"/>
   <path d="m30.4 26-0.634-0.554 1.53-1.02z" fill="#c24400"/>
   <path d="m31.3 24.5-0.897 1.57 0.924-0.425 0.726-1.29z" fill="#6e1a00"/>
   <path d="m29.9 15.2-0.091 0.0662 1.14 0.682zm-0.905 0.153 0.814-0.0864-0.819-0.423z" fill="#e66200"/>
   <path d="m26.1 14.3 1.07 0.264 0.726-0.149zm2.89 0.503-1.82-0.239 1.82 0.749z" fill="#d45100"/>
   <path d="m27.2 14.6 0.446 0.757 1.38-0.0084z" fill="#ffde48"/>
   <g fill="#ffbe2e">
    <path d="m27.2 14.6 0.446 0.757-1.49-0.119z"/>
    <path d="m25.8 14.6 0.356 0.624 1.04-0.638z"/>
    <path d="m24.4 15.2 1.4-0.559 0.356 0.624z"/>
   </g>
   <path d="m23.5 15.3 0.913-0.0833 0.586-0.63zm0.913-0.0833 0.947 0.864 0.805-0.799z" fill="#ff9d0e"/>
   <path d="m24.4 15.2-1.54 1.45 0.63-1.36z" fill="#d45100"/>
   <path d="m22.8 16.6 0.984 0.163 0.558-1.61z" fill="#ff9d0e"/>
   <path d="m23.8 16.8 0.558-1.61 0.947 0.864z" fill="#ffbe2e"/>
   <path d="m21.4 16.9 0.0598 0.582 0.838-1.44z" fill="#d45100"/>
   <path d="m20.7 18.4 0.702-1.45 0.0598 0.582z" fill="#e66200"/>
   <path d="m21.4 17.5 0.838-1.44 0.567 0.545z" fill="#d45100"/>
   <path d="m21.4 18.8 0.0508-1.25-0.762 0.864z" fill="#e66200"/>
   <path d="m21.4 18.8 0.0508-1.25 0.989 0.803z" fill="#d45100"/>
   <path d="m22.4 18.3 0.415-1.7-1.4 0.894z" fill="#ff9d0e"/>
   <path d="m22.4 18.3 0.415-1.7 0.984 0.163z" fill="#ff9d0e"/>
   <path d="m20.5 19.7 0.149-1.31 0.712 0.383z" fill="#e66200"/>
   <path d="m27.8 27.3 1.32-0.205 0.588-0.508zm-7.77-5.53 0.0976-0.305-0.028-1.68zm0.536-2.07-0.438 1.77 0.794 2.1-0.389-2.43z" fill="#6e1a00"/>
   <path d="m20.9 23.6 0.656 0.092-0.459-1.07z" fill="#c24400"/>
   <path d="m30.4 26-0.721 0.56-0.588 0.508 1.36-0.746zm-3.86 1.47 1.03 0.0287 1.52-0.428-1.32 0.205zm-5.04-2.71 0.689 0.132-0.645-1.26z" fill="#6e1a00"/>
   <path d="m24.5 26.5-1.17-0.898-0.485 0.467 1.62 1.05zm-4.14-3.34 0.783 1.54-0.245-1.1zm-0.355-1.35 0.355 1.35-0.257-1.66zm6.52 4.88-2.03-0.182 0.856 0.4-0.883 0.216-1.06-0.331 1.18 0.511 1.97 0.231 1.22-0.194zm-4.97-2.99-0.654-0.092 0.612 1.22zm-1.04-2.53 0.389 2.43 0.196-0.98zm1.69 3.78-0.689-0.132-0.365-0.121 0.552 0.744 0.763 0.7 0.952 0.646-0.56-0.716z" fill="#c24400"/>
   <path d="m20.5 19.7 0.925 1.43-0.064-2.36z" fill="#d45100"/>
   <path d="m20.5 21.1 0.584 1.45 0.372-1.45z" fill="#e66200"/>
   <path d="m21.1 22.6 0.372-1.45 0.462 1.15z" fill="#e66200"/>
   <g fill="#c24400">
    <path d="m21.5 23.7 1.77 1.1-1.4-2.48z"/>
    <path d="m21.1 24.7 0.366 0.121-0.611-1.22zm3.92 0.632-0.56 1.17 2.03 0.182zm-3.51-1.64 0.645 1.26 0.651 1.12 0.485-0.467-0.0074-0.813z"/>
    <path d="m29.8 25.5-0.0872 1.11 0.721-0.56zm-3.1-0.16-0.147 1.34 1.72-0.462-0.0612-1.5z"/>
    <path d="m20.5 21.1h0.957l-0.925-1.43zm7.68 3.55 0.0612 1.5 1.53-0.714z"/>
    <path d="m28.2 24.7 0.982-0.89 0.605 1.68z"/>
    <path d="m29.8 25.5 0.743-2.25-1.35 0.572z"/>
   </g>
   <g fill="#6e1a00">
    <path d="m31.3 24.5-1.53 1.02 0.743-2.25z"/>
    <path d="m32 23.5-1.54-0.226 0.788 1.23 0.753-0.144z"/>
    <path d="m32.2 22.2-1.64 0.983 1.54 0.226 0.865-1.45z"/>
   </g>
   <path d="m20.7 18.4 0.702-1.45-0.945 1.54zm10.9 1.79 0.612 2.06 0.455-1.3z" fill="#e66200"/>
   <path d="m32.6 20.9-0.425-1.63-0.644 0.868z" fill="#e66200"/>
   <path d="m30.5 23.2 1.64-0.983-1.59-0.708z" fill="#962800"/>
   <g fill="#c24400">
    <path d="m30.5 23.2-1.49-1.5 0.14 2.08z"/>
    <path d="m28.2 24.7-1.14-1.01 2.13 0.122z"/>
    <path d="m21.5 23.7 0.376-1.38-0.835 0.305zm5.49 0.0158-0.371 1.64 1.51-0.628z"/>
   </g>
   <path d="m24.7 24-1.1-0.559-0.253 1.31 1.73 0.539 1.61 0.0182z" fill="#ff7d1a"/>
   <path d="m26.7 25.3 0.37-1.64-2.37 0.336z" fill="#ff7d1a"/>
   <path d="m21.5 21.1 0.474-1.51-0.538-0.845z" fill="#d45100"/>
   <path d="m22.4 18.3 2.08-0.607-1.1 2.25z" fill="#ffbe2e"/>
   <path d="m30.5 23.2-1.49-1.5 1.54-0.188z" fill="#c24400"/>
   <path d="m32.2 22.2-0.612-2.06-0.979 1.35z" fill="#e66200"/>
   <path d="m29.2 23.8-1.7-1.65 1.56-0.429z" fill="#ff7d1a"/>
   <path d="m27 23.7 2.13 0.122-1.7-1.65z" fill="#ff7d1a"/>
   <path d="m27 23.7-1.16-0.948 1.59-0.576z" fill="#ff9d0e"/>
   <path d="m22.3 16.1 0.128-0.288-1.03 1.14zm8.87 2.44 0.385 1.65 0.644-0.868z" fill="#e66200"/>
   <path d="m22.4 18.3 0.982 1.64-1.48-0.352z" fill="#ff9d0e"/>
   <path d="m21.9 19.6 1.48 0.352-1 1.58z" fill="#d45100"/>
   <path d="m24.5 17.7 0.822-1.67-1.51 0.746z" fill="#ffbe2e"/>
   <path d="m21.5 21.1 0.955 0.418-0.492 0.732z" fill="#d45100"/>
   <path d="m22.4 21.6-0.492 0.732 1.4 2.48 0.253-1.31z" fill="#d45100"/>
   <path d="m23.6 23.5 0.155-2.3-1.31 0.399z" fill="#ff9d0e"/>
   <path d="m23.6 23.5 2.3-0.724-2.15-1.58z" fill="#ff9d0e"/>
   <path d="m25.9 22.7-0.224-1.78-1.92 0.202z" fill="#ffbe2e"/>
   <path d="m25.6 21 1.62-0.607 0.188 1.81z" fill="#ffbe2e"/>
   <path d="m24.7 24 2.37-0.336-1.16-0.948z" fill="#ff9d0e"/>
   <path d="m24.7 24-1.1-0.559 2.3-0.724z" fill="#ff7d1a"/>
   <g fill="#ffde48">
    <path d="m24.5 17.7 1.41 0.149-0.587-1.82z"/>
    <path d="m26.7 16.6-1.31-0.533 0.587 1.82z"/>
    <path d="m26.7 16.6 1.4 0.959-2.13 0.33z"/>
   </g>
   <path d="m25.9 17.9 2.08 1.11-0.739 1.37z" fill="#ffbe2e"/>
   <path d="m28 19 0.0406-1.44-2.13 0.33z" fill="#ffde48"/>
   <g fill="#ffbe2e">
    <path d="m28 19 0.0406-1.44 1.47 0.721z"/>
    <path d="m25.9 17.9 1.35 2.47-2.36-1.18z"/>
    <path d="m25.6 21 1.62-0.607-2.36-1.18z"/>
    <path d="m27.3 20.3 2.08-0.38-1.34-0.985z"/>
   </g>
   <path d="m29.5 18.3-0.17 1.7-1.34-0.985z" fill="#ffde48"/>
   <path d="m29.5 18.3 0.982 1.33-1.15 0.365z" fill="#ffbe2e"/>
   <path d="m31.2 18.5-1.63-0.27 0.982 1.33z" fill="#ff9d0e"/>
   <path d="m22.9 16.6 0.63-1.36-1.2 0.819zm8.31 1.9-0.647 1.07 1.03 0.584z" fill="#d45100"/>
   <path d="m30.6 21.5 0.979-1.35-1.03-0.584z" fill="#e66200"/>
   <path d="m30.6 21.5-0.0542-1.94-1.15 0.365z" fill="#d45100"/>
   <path d="m22.4 18.3 2.08-0.607-0.684-0.927zm4.84 2.01 1.75 1.38 0.332-1.76z" fill="#ff9d0e"/>
   <path d="m27.5 22.2 1.56-0.429-1.75-1.38z" fill="#ff7d1a"/>
   <path d="m24.5 17.7 0.395 1.44 1.01-1.29z" fill="#ffde48"/>
   <g fill="#ffbe2e">
    <path d="m24.5 17.7-1.1 2.25 1.5-0.81z"/>
    <path d="m24.9 19.2-1.19 1.99 1.92-0.202z"/>
    <path d="m25.6 21 0.224 1.78 1.59-0.576zm-1.92 0.202 1.19-1.99-1.5 0.81z"/>
   </g>
   <path d="m22.4 21.6 1-1.58 0.31 1.18z" fill="#d45100"/>
   <path d="m23.4 26.8 1.06 0.332-1.62-1.05zm-0.0766-1.18 1.17 0.898 0.56-1.17-1.73-0.539zm3.19 1.08 0.147-1.34-1.61-0.0182zm1.72-0.464-0.472 1.11 1.91-0.713z" fill="#c24400"/>
   <path d="m21.5 21.1 0.474-1.51 0.481 1.93z" fill="#d45100"/>
   <path d="m21.9 19.6 0.502-1.29-1.04 0.446zm7.42 0.344-0.332 1.76 1.54-0.188z" fill="#ff9d0e"/>
   <path d="m33.2 21.6v-0.0028l-0.0609-2.01v-7e-3l-0.302-1v-0.0021l-0.863-1.63-0.995-1.05h-0.0021l-1.05-0.748h-0.0042l-0.91-0.357h-0.0063l-1.09-0.388h-0.0073l-1.8-0.114h-0.0077l-1.13 0.205h-0.0042l-0.924 0.284h-0.0059l-1.64 0.955-1.03 1.14-0.945 1.54v0.0038l-0.372 1.31v0.0049l-0.07 1.98v0.0095l0.355 1.35v0.0046l0.782 1.54v0.0024l0.541 0.762v0.0018l0.763 0.7h0.0021l0.953 0.645h0.0021l1.18 0.511h0.0073l1.97 0.231h0.0028l1.03 0.0287h0.0081l1.52-0.428h0.0053l1.36-0.746 0.0024-0.0018h0.0017l0.875-0.746 0.678-0.809 0.0024-0.0035 0.958-1.88v-0.0074l0.21-1.28v-0.0031zm-10.7 4.45-0.198-0.181 0.444 0.348zm2.88 0.754-0.695-0.325 1.64 0.148zm0.253-5.92-1.82 0.192 1.12-1.89zm-0.636-1.7 2.23 1.12-1.53 0.572zm0.653 1.76 0.212 1.68-2.03-1.49zm0.186 1.74-2.2 0.694 0.148-2.2zm-0.122-1.71 1.71 1.13-1.5 0.543zm0.0273-0.0532 1.53-0.573 0.177 1.71zm2.36-1.97 1.42-0.671-0.16 1.6zm1.21 0.963-1.95 0.357 0.694-1.28zm-2.01 0.335-1.27-2.34 1.97 1.05zm-0.07-0.0067-2.24-1.12 0.964-1.22zm-3.46 0.802-0.286-1.09 1.38-0.747zm-0.189 2.28-1.09-1.79 1.24-0.376zm2.23-0.567-1.11 1.18-1.02-0.516zm1.64-0.59-0.396 1.42-1.09-0.886zm-0.107-1.79 1.65 1.3-1.47 0.405zm0.0329-0.0497 1.97-0.36-0.315 1.67zm2.05-0.439 0.158-1.58 0.912 1.24zm1.09-0.284 0.0504 1.81-1.13-1.47zm-2.44-0.707 0.0378-1.34 1.38 0.674zm-0.0595 0-1.96-1.04 2-0.311zm-3.06 0.167-0.368-1.34 1.31 0.14zm-0.048 0.05-1.39 0.753 1.02-2.09zm-1.19 1.99-1.21 0.368 0.924-1.46zm-0.219 2.21-1.51-1.07 0.45-0.669zm0.122 0.152 1.02 0.516-1.25 0.69zm2.28-0.728 1.09 0.888-2.21 0.315zm1.6-0.56 1.61 1.56-2.01-0.115zm0.0427-0.0413 1.48-0.406 0.133 1.96zm1.85-2.14 1.14 1.48-1.45 0.175zm1.17-0.385 0.958 0.543-0.91 1.26zm0.0102-0.0623 0.595-0.977 0.353 1.51zm-0.0438-0.0427-0.913-1.24 1.51 0.25zm-2.4-2.01 1.07-0.971 0.308 1.65zm-2.12 0.299 0.68-1.21 1.31 0.898zm-1.42-0.134 0.77-1.57 0.551 1.71zm-1.15 2.21-0.934-1.56 1.98-0.578zm-0.989 1.57-0.452-1.82 1.4 0.331zm-0.498 0.743-0.414-1.03 0.856 0.374zm1.61 1.25-0.233 1.21-1.3-2.29zm1.11 0.59 0.355 1.2-1.61-0.502zm2.34-0.344-0.352 1.56-1.89-1.24zm2.09 0.112-0.91 0.824-1.06-0.937zm-0.0329-2.02 1.4 1.42-1.27 0.538zm0.0287-0.0553 1.44-0.175-0.049 1.59zm2.44-1.5 0.577 1.94-1.5-0.667zm-0.327-1.64 0.941 0.714-0.588 0.793zm-1.62-0.363 0.875-1 0.645 1.25zm-0.0396-0.0451-0.306-1.64 1.18 0.636zm-1.49-0.693-1.3-0.894 2.37-0.0721zm-2.12 0.294-0.547-1.7 1.22 0.496zm-1.42-0.132-0.633-0.859 1.4-0.691zm-0.0438 0.0406-1.94 0.566 1.3-1.43zm-1.11 2.22-1.38-0.328 0.468-1.2zm-0.986 1.58-0.875-0.383 0.435-1.39zm-0.488 0.765-0.753 0.275 0.336-1.31zm1.35 2.41-1.66-1.03 0.35-1.29zm1.69 0.616-1.57 0.248-0.0067-0.738zm-0.2-1.21 1.84 1.2-1.49-0.0168zm2.33-0.35 1.07 0.947-1.42 0.588zm2.1 0.12 0.565 1.57-1.48-0.735zm0.0504-0.035 1.26-0.535-0.695 2.11zm1.39-2.23 1.5 0.667-1.55 0.926zm1-1.33 0.98 0.698-0.42 1.19zm-0.0108-0.0808 0.589-0.794 0.388 1.49zm-0.393-1.65 0.271-0.849 0.651 1.55zm-0.041-0.0662-0.625-1.21 0.897 0.359zm-1.85-1.92 1.31-0.0854-0.164 0.7zm-2.58 0.0228 0.919-1.14 1.47 1.07zm-0.0542-0.0273-0.473-1.24 1.38 0.111zm-0.0616 0.0056-1.21-0.49 0.741-0.735zm-2.72 0.208 0.52-1.5 0.882 0.805zm-1.39 1.49 0.38-1.56 0.903 0.15zm-0.565 1.33-0.488-0.766 0.943-0.402zm-0.0259 0.07-0.417 1.33-0.056-2.07zm-0.481 1.54-0.34 1.33-0.534-1.33zm-0.888-0.0581 0.0284-1.31 0.843 1.3zm1.34 1.22-0.34 1.24-0.413-0.965zm1.36 2.41-1.03 0.145-0.587-1.15zm0.056 0.0518 0.0067 0.727-1.02-0.584zm1.71 0.543-0.521 1.09-1.08-0.834zm0.0609 0.0108 1.37 1.27-1.9-0.171zm0.0672-0.0186 1.5 0.0172-0.137 1.24zm3.02-0.595 0.0574 1.41-1.47-0.821zm0.0598 0.0053 1.49 0.738-1.43 0.668zm2.31-1.44 0.738 1.16-1.44 0.953zm0.0514-0.0301 1.42 0.21-0.694 0.928zm0.0262-0.056 1.52-0.91-0.099 1.12zm2.01-2.17 0.268 0.94-0.674 0.218zm-0.359-1.6 0.77 0.97-0.396 0.467zm-0.721-1.77 1 0.733-0.344 0.828zm-1.03-0.504 0.161-0.688 0.72 1.04zm-1.28-0.695-0.175-1.05 1.5 0.964zm-0.0662-0.035-1.44-1.04 1.26-0.0081zm-2.92-1.21 0.936-0.575 0.402 0.682zm-0.899 0.781-0.867-0.791 1.6 0.0602zm-1.52 0.752-0.9-0.15 1.41-1.32zm-1.4 1.51-0.921-0.748 1.31-0.832zm-0.0392 0.0448-0.952 0.406 0.0462-1.14zm-0.952 2.71-0.855-1.32 0.796-0.858zm-0.371 1.56-0.162 0.809-0.32-2.01zm0.0413 0.0966 0.401 0.936-0.571-0.0798zm1.04 2.19-0.604-0.117 0.0385-0.988zm1.14 0.7-0.429 0.413-0.576-0.991zm0.0511 0.0329 1.03 0.795-1.46-0.382zm3.36-0.247 1.47 0.816-1.61 0.432zm3.04 0.161-0.0805 1.03-1.33-0.369zm1.48-0.971-0.817 1.43-0.577-0.506zm0.805-1.01 0.0042 0.749-0.653 0.125zm0.164-1.28 0.665-0.215-0.757 1.27zm0.461-1.32 0.377-0.445-0.121 1.33zm-0.423-1.64 0.339-0.816 0.439 1.8zm-0.721-1.73 0.238-0.415 0.717 1.12zm-0.0413-0.0472-0.704-1.02 0.942 0.601zm-2.36-2.15 0.713-0.076 0.721 0.994zm-1.45-0.042-0.392-0.667 1.6 0.659zm-1.49-0.131-0.315-0.554 1.24-0.0126zm-0.063 0.0095-1.56-0.0584 1.24-0.497zm-3.15 1.29 0.56-1.21 0.81-0.0738zm-0.1 0.0756-0.51-0.49 1.08-0.737zm-0.0382 0.0455-1.27 0.808 0.758-1.3zm-1.44 2.1-0.637-0.343 0.682-0.774zm-0.02 0.0564-0.774 0.834 0.134-1.18zm-0.876 2.34-0.327 0.267 0.352-1.42zm0.0081 0.07 0.334 2.1-0.684-1.81zm1.03 2.5-0.0382 0.985-0.533-1.06zm0.657 1.26 0.545 0.935-1.12-1.04zm2.29 1.55-0.0234 0.541-1.43-0.919zm0.0584 0.0231 0.74 0.346-0.763 0.187zm1.97 0.172 0.0231 0.758-1.07-0.562zm1.7-0.455-0.436 1.03-1.15-0.6zm0.07-0.0091 1.33 0.368-1.76 0.657zm1.53-0.688 0.562 0.49-0.64 0.498zm1.52-1.05 0.648-0.124-1.42 1.48zm0.763-0.286-0.0046-0.73 0.597-0.365zm0.0525-0.835 0.724-1.22-0.133 0.857zm0.925-2.63 0.0847 0.896-0.192 0.265zm-0.442-2.24 0.166 0.155 0.166 1.2zm-0.84-1.37 0.156-0.0784 0.451 1.02zm-1.09-0.715 0.274-0.392 0.67 0.994zm-0.0427-0.0427-0.713-0.984 0.988 0.592zm-1.61-1.03-0.0045-0.428 0.687 0.355zm-0.0595-0.0116-1.57-0.645 1.57 0.206zm-3.11-0.721 0.25-0.215 0.829 0.204zm-1.36 0.512 0.486-0.525 0.673 0.0606zm-0.126 0.0483-0.735 0.0668 1.21-0.576zm-2.03 0.846 0.0812-0.182 0.676-0.336zm-0.887 1.43-0.0494-0.477 0.735-0.7zm-0.0511 0.084-0.61 0.691 0.562-1.16zm-0.908 2.16-0.389 0.0724 0.514-1.17zm-0.013 0.063-0.372 1.5-0.0238-1.43zm0.328 3.73-0.442-0.364-0.212-1.36zm0.62 1.26-0.282-0.0928-0.189-0.847zm1.21 1.16-0.937-0.508-0.151-0.507zm0.172 0.161 0.406 0.518-1.24-0.973zm0.152 0.0976 1.29 0.834-0.846-0.265zm2.37 0.743 1 0.525-1.75-0.344zm1.21-0.2 1.12 0.585-1.1 0.175zm2.98-0.0273-0.455 0.394-1.03 0.159zm0.844-0.59 0.0382 0.245-0.59 0.182zm1.53-1.58-0.606 1.08-0.772 0.355zm0.169-0.18 0.406-0.751-0.434 1.03zm0.859-2.31 0.153-0.212-0.245 0.811zm0.148-1.6-0.0021-0.0158 0.0154-0.201 0.0154 0.52zm-0.041-0.296-0.153-1.11 0.19 0.63zm-0.455-1.73-0.28-0.635 0.392 0.74zm-0.845-1.31-0.56-0.83 0.714 0.752zm-1.87-1.79 0.0374-0.027 0.429 0.307zm-0.0567-0.0326-0.291-0.15 0.323 0.127zm-2.46-0.636 0.545-0.112 0.82 0.292zm-0.178-0.0238-0.742-0.183 1.24 0.0791zm-1.41 0.0136-0.579-0.0522 0.81-0.146zm-2.04 0.517 0.331-0.248 0.534-0.164zm-0.272 0.13-0.287 0.143 0.442-0.258zm-1.21 0.827-0.341 0.326 0.39-0.435zm-1.6 2.3-0.152 0.056 0.589-0.957zm-0.197 0.136 0.163-0.0606-0.413 0.939zm-0.407 2.44 0.0084 0.523-0.0301 0.0952zm0.0284 0.656 0.149 0.961-0.205-0.784zm0.778 1.99 0.191 0.858-0.611-1.2zm0.614 1.22 0.133 0.447-0.396-0.534zm2.97 2.3 0.0553 0.0886-0.581-0.253zm0.149 0.126-0.07-0.108 1.26 0.249zm3.1 0.105-0.133 0.15-0.694-0.0192zm0.092-0.0144 0.827-0.128-0.95 0.267zm1.91-0.714 0.485-0.15-0.854 0.471zm0.777-0.322-0.0382-0.245 0.709-0.326zm1.54-1.84-0.0332 0.331-0.466 0.556zm0.768-1.41 0.12-0.0578-0.548 1.08zm0.159-0.143-0.134 0.0651 0.27-0.889z" fill="url(#a)"/>
   <path d="m33.2 21.6v-0.0028l-0.0609-2.01v-7e-3l-0.302-1v-0.0021l-0.863-1.63-0.995-1.05h-0.0021l-1.05-0.748h-0.0042l-0.91-0.357h-0.0063l-1.09-0.388h-0.0073l-1.8-0.114h-0.0077l-1.13 0.205h-0.0042l-0.924 0.284h-0.0059l-1.64 0.955-1.03 1.14-0.945 1.54v0.0038l-0.372 1.31v0.0049l-0.07 1.98v0.0095l0.355 1.35v0.0046l0.782 1.54v0.0024l0.541 0.762v0.0018l0.763 0.7h0.0021l0.953 0.645h0.0021l1.18 0.511h0.0073l1.97 0.231h0.0028l1.03 0.0287h0.0081l1.52-0.428h0.0053l1.36-0.746 0.0024-0.0018h0.0017l0.875-0.746 0.678-0.809 0.0024-0.0035 0.958-1.88v-0.0074l0.21-1.28v-0.0031zm-10.7 4.45-0.198-0.181 0.444 0.348zm2.88 0.754-0.695-0.325 1.64 0.148zm0.253-5.92-1.82 0.192 1.12-1.89zm-0.636-1.7 2.23 1.12-1.53 0.572zm0.653 1.76 0.212 1.68-2.03-1.49zm0.186 1.74-2.2 0.694 0.148-2.2zm-0.122-1.71 1.71 1.13-1.5 0.543zm0.0273-0.0532 1.53-0.573 0.177 1.71zm2.36-1.97 1.42-0.671-0.16 1.6zm1.21 0.963-1.95 0.357 0.694-1.28zm-2.01 0.335-1.27-2.34 1.97 1.05zm-0.07-0.0067-2.24-1.12 0.964-1.22zm-3.46 0.802-0.286-1.09 1.38-0.747zm-0.189 2.28-1.09-1.79 1.24-0.376zm2.23-0.567-1.11 1.18-1.02-0.516zm1.64-0.59-0.396 1.42-1.09-0.886zm-0.107-1.79 1.65 1.3-1.47 0.405zm0.0329-0.0497 1.97-0.36-0.315 1.67zm2.05-0.439 0.158-1.58 0.912 1.24zm1.09-0.284 0.0504 1.81-1.13-1.47zm-2.44-0.707 0.0378-1.34 1.38 0.674zm-0.0595 0-1.96-1.04 2-0.311zm-3.06 0.167-0.368-1.34 1.31 0.14zm-0.048 0.05-1.39 0.753 1.02-2.09zm-1.19 1.99-1.21 0.368 0.924-1.46zm-0.219 2.21-1.51-1.07 0.45-0.669zm0.122 0.152 1.02 0.516-1.25 0.69zm2.28-0.728 1.09 0.888-2.21 0.315zm1.6-0.56 1.61 1.56-2.01-0.115zm0.0427-0.0413 1.48-0.406 0.133 1.96zm1.85-2.14 1.14 1.48-1.45 0.175zm1.17-0.385 0.958 0.543-0.91 1.26zm0.0102-0.0623 0.595-0.977 0.353 1.51zm-0.0438-0.0427-0.913-1.24 1.51 0.25zm-2.4-2.01 1.07-0.971 0.308 1.65zm-2.12 0.299 0.68-1.21 1.31 0.898zm-1.42-0.134 0.77-1.57 0.551 1.71zm-1.15 2.21-0.934-1.56 1.98-0.578zm-0.989 1.57-0.452-1.82 1.4 0.331zm-0.498 0.743-0.414-1.03 0.856 0.374zm1.61 1.25-0.233 1.21-1.3-2.29zm1.11 0.59 0.355 1.2-1.61-0.502zm2.34-0.344-0.352 1.56-1.89-1.24zm2.09 0.112-0.91 0.824-1.06-0.937zm-0.0329-2.02 1.4 1.42-1.27 0.538zm0.0287-0.0553 1.44-0.175-0.049 1.59zm2.44-1.5 0.577 1.94-1.5-0.667zm-0.327-1.64 0.941 0.714-0.588 0.793zm-1.62-0.363 0.875-1 0.645 1.25zm-0.0396-0.0451-0.306-1.64 1.18 0.636zm-1.49-0.693-1.3-0.894 2.37-0.0721zm-2.12 0.294-0.547-1.7 1.22 0.496zm-1.42-0.132-0.633-0.859 1.4-0.691zm-0.0438 0.0406-1.94 0.566 1.3-1.43zm-1.11 2.22-1.38-0.328 0.468-1.2zm-0.986 1.58-0.875-0.383 0.435-1.39zm-0.488 0.765-0.753 0.275 0.336-1.31zm1.35 2.41-1.66-1.03 0.35-1.29zm1.69 0.616-1.57 0.248-0.0067-0.738zm-0.2-1.21 1.84 1.2-1.49-0.0168zm2.33-0.35 1.07 0.947-1.42 0.588zm2.1 0.12 0.565 1.57-1.48-0.735zm0.0504-0.035 1.26-0.535-0.695 2.11zm1.39-2.23 1.5 0.667-1.55 0.926zm1-1.33 0.98 0.698-0.42 1.19zm-0.0108-0.0808 0.589-0.794 0.388 1.49zm-0.393-1.65 0.271-0.849 0.651 1.55zm-0.041-0.0662-0.625-1.21 0.897 0.359zm-1.85-1.92 1.31-0.0854-0.164 0.7zm-2.58 0.0228 0.919-1.14 1.47 1.07zm-0.0542-0.0273-0.473-1.24 1.38 0.111zm-0.0616 0.0056-1.21-0.49 0.741-0.735zm-2.72 0.208 0.52-1.5 0.882 0.805zm-1.39 1.49 0.38-1.56 0.903 0.15zm-0.565 1.33-0.488-0.766 0.943-0.402zm-0.0259 0.07-0.417 1.33-0.056-2.07zm-0.481 1.54-0.34 1.33-0.534-1.33zm-0.888-0.0581 0.0284-1.31 0.843 1.3zm1.34 1.22-0.34 1.24-0.413-0.965zm1.36 2.41-1.03 0.145-0.587-1.15zm0.056 0.0518 0.0067 0.727-1.02-0.584zm1.71 0.543-0.521 1.09-1.08-0.834zm0.0609 0.0108 1.37 1.27-1.9-0.171zm0.0672-0.0186 1.5 0.0172-0.137 1.24zm3.02-0.595 0.0574 1.41-1.47-0.821zm0.0598 0.0053 1.49 0.738-1.43 0.668zm2.31-1.44 0.738 1.16-1.44 0.953zm0.0514-0.0301 1.42 0.21-0.694 0.928zm0.0262-0.056 1.52-0.91-0.099 1.12zm2.01-2.17 0.268 0.94-0.674 0.218zm-0.359-1.6 0.77 0.97-0.396 0.467zm-0.721-1.77 1 0.733-0.344 0.828zm-1.03-0.504 0.161-0.688 0.72 1.04zm-1.28-0.695-0.175-1.05 1.5 0.964zm-0.0662-0.035-1.44-1.04 1.26-0.0081zm-2.92-1.21 0.936-0.575 0.402 0.682zm-0.899 0.781-0.867-0.791 1.6 0.0602zm-1.52 0.752-0.9-0.15 1.41-1.32zm-1.4 1.51-0.921-0.748 1.31-0.832zm-0.0392 0.0448-0.952 0.406 0.0462-1.14zm-0.952 2.71-0.855-1.32 0.796-0.858zm-0.371 1.56-0.162 0.809-0.32-2.01zm0.0413 0.0966 0.401 0.936-0.571-0.0798zm1.04 2.19-0.604-0.117 0.0385-0.988zm1.14 0.7-0.429 0.413-0.576-0.991zm0.0511 0.0329 1.03 0.795-1.46-0.382zm3.36-0.247 1.47 0.816-1.61 0.432zm3.04 0.161-0.0805 1.03-1.33-0.369zm1.48-0.971-0.817 1.43-0.577-0.506zm0.805-1.01 0.0042 0.749-0.653 0.125zm0.164-1.28 0.665-0.215-0.757 1.27zm0.461-1.32 0.377-0.445-0.121 1.33zm-0.423-1.64 0.339-0.816 0.439 1.8zm-0.721-1.73 0.238-0.415 0.717 1.12zm-0.0413-0.0472-0.704-1.02 0.942 0.601zm-2.36-2.15 0.713-0.076 0.721 0.994zm-1.45-0.042-0.392-0.667 1.6 0.659zm-1.49-0.131-0.315-0.554 1.24-0.0126zm-0.063 0.0095-1.56-0.0584 1.24-0.497zm-3.15 1.29 0.56-1.21 0.81-0.0738zm-0.1 0.0756-0.51-0.49 1.08-0.737zm-0.0382 0.0455-1.27 0.808 0.758-1.3zm-1.44 2.1-0.637-0.343 0.682-0.774zm-0.02 0.0564-0.774 0.834 0.134-1.18zm-0.876 2.34-0.327 0.267 0.352-1.42zm0.0081 0.07 0.334 2.1-0.684-1.81zm1.03 2.5-0.0382 0.985-0.533-1.06zm0.657 1.26 0.545 0.935-1.12-1.04zm2.29 1.55-0.0234 0.541-1.43-0.919zm0.0584 0.0231 0.74 0.346-0.763 0.187zm1.97 0.172 0.0231 0.758-1.07-0.562zm1.7-0.455-0.436 1.03-1.15-0.6zm0.07-0.0091 1.33 0.368-1.76 0.657zm1.53-0.688 0.562 0.49-0.64 0.498zm1.52-1.05 0.648-0.124-1.42 1.48zm0.763-0.286-0.0046-0.73 0.597-0.365zm0.0525-0.835 0.724-1.22-0.133 0.857zm0.925-2.63 0.0847 0.896-0.192 0.265zm-0.442-2.24 0.166 0.155 0.166 1.2zm-0.84-1.37 0.156-0.0784 0.451 1.02zm-1.09-0.715 0.274-0.392 0.67 0.994zm-0.0427-0.0427-0.713-0.984 0.988 0.592zm-1.61-1.03-0.0045-0.428 0.687 0.355zm-0.0595-0.0116-1.57-0.645 1.57 0.206zm-3.11-0.721 0.25-0.215 0.829 0.204zm-1.36 0.512 0.486-0.525 0.673 0.0606zm-0.126 0.0483-0.735 0.0668 1.21-0.576zm-2.03 0.846 0.0812-0.182 0.676-0.336zm-0.887 1.43-0.0494-0.477 0.735-0.7zm-0.0511 0.084-0.61 0.691 0.562-1.16zm-0.908 2.16-0.389 0.0724 0.514-1.17zm-0.013 0.063-0.372 1.5-0.0238-1.43zm0.328 3.73-0.442-0.364-0.212-1.36zm0.62 1.26-0.282-0.0928-0.189-0.847zm1.21 1.16-0.937-0.508-0.151-0.507zm0.172 0.161 0.406 0.518-1.24-0.973zm0.152 0.0976 1.29 0.834-0.846-0.265zm2.37 0.743 1 0.525-1.75-0.344zm1.21-0.2 1.12 0.585-1.1 0.175zm2.98-0.0273-0.455 0.394-1.03 0.159zm0.844-0.59 0.0382 0.245-0.59 0.182zm1.53-1.58-0.606 1.08-0.772 0.355zm0.169-0.18 0.406-0.751-0.434 1.03zm0.859-2.31 0.153-0.212-0.245 0.811zm0.148-1.6-0.0021-0.0158 0.0154-0.201 0.0154 0.52zm-0.041-0.296-0.153-1.11 0.19 0.63zm-0.455-1.73-0.28-0.635 0.392 0.74zm-0.845-1.31-0.56-0.83 0.714 0.752zm-1.87-1.79 0.0374-0.027 0.429 0.307zm-0.0567-0.0326-0.291-0.15 0.323 0.127zm-2.46-0.636 0.545-0.112 0.82 0.292zm-0.178-0.0238-0.742-0.183 1.24 0.0791zm-1.41 0.0136-0.579-0.0522 0.81-0.146zm-2.04 0.517 0.331-0.248 0.534-0.164zm-0.272 0.13-0.287 0.143 0.442-0.258zm-1.21 0.827-0.341 0.326 0.39-0.435zm-1.6 2.3-0.152 0.056 0.589-0.957zm-0.197 0.136 0.163-0.0606-0.413 0.939zm-0.407 2.44 0.0084 0.523-0.0301 0.0952zm0.0284 0.656 0.149 0.961-0.205-0.784zm0.778 1.99 0.191 0.858-0.611-1.2zm0.614 1.22 0.133 0.447-0.396-0.534zm2.97 2.3 0.0553 0.0886-0.581-0.253zm0.149 0.126-0.07-0.108 1.26 0.249zm3.1 0.105-0.133 0.15-0.694-0.0192zm0.092-0.0144 0.827-0.128-0.95 0.267zm1.91-0.714 0.485-0.15-0.854 0.471zm0.777-0.322-0.0382-0.245 0.709-0.326zm1.54-1.84-0.0332 0.331-0.466 0.556zm0.768-1.41 0.12-0.0578-0.548 1.08zm0.159-0.143-0.134 0.0651 0.27-0.889z" fill="url(#b)"/>
   <path d="m39.1 16.2c-0.59-1.42-1.78-2.95-2.72-3.43a14.1 14.1 0 0 1 1.37 4.12c0-0.0031 0 0.0028 0.0021 0.013l0.0024 0.0144a12.3 12.3 0 0 1-0.423 9.16c-1.56 3.34-5.32 6.76-11.2 6.59-6.37-0.18-12-4.9-13-11.1-0.191-0.975 0-1.47 0.0959-2.26a10.1 10.1 0 0 0-0.22 1.87v0.07a13.6 13.6 0 0 0 27 2.29c0.0228-0.175 0.0414-0.348 0.0616-0.523a13.9 13.9 0 0 0-0.881-6.81z" fill="url(#c)"/>
   <path d="m39.1 16.2c-0.59-1.42-1.78-2.95-2.72-3.43a14.1 14.1 0 0 1 1.37 4.12c0-0.0031 0 0.0028 0.0021 0.013l0.0024 0.0144a12.3 12.3 0 0 1-0.423 9.16c-1.56 3.34-5.32 6.76-11.2 6.59-6.37-0.18-12-4.9-13-11.1-0.191-0.975 0-1.47 0.0959-2.26a10.1 10.1 0 0 0-0.22 1.87v0.07a13.6 13.6 0 0 0 27 2.29c0.0228-0.175 0.0414-0.348 0.0616-0.523a13.9 13.9 0 0 0-0.881-6.81z" fill="url(#d)"/>
   <path d="m13.1 21.6c1.05 6.18 6.66 10.9 13 11.1 5.9 0.167 9.67-3.25 11.2-6.59a12.3 12.3 0 0 0 0.423-9.16v-0.013c0-0.0102-0.0021-0.0161-0.0021-0.013l0.0028 0.0228c0.482 3.14-1.12 6.18-3.62 8.25l-0.0077 0.0175c-4.88 3.96-9.54 2.39-10.5 1.75a8.67 8.67 0 0 1-0.198-0.0987c-2.84-1.36-4.01-3.94-3.76-6.16a3.49 3.49 0 0 1-3.22-2.02 5.13 5.13 0 0 1 4.99-0.2 6.77 6.77 0 0 0 5.1 0.2c-0.0049-0.11-2.37-1.05-3.29-1.96-0.492-0.485-0.726-0.718-0.933-0.894a4.12 4.12 0 0 0-0.35-0.265c-0.0808-0.055-0.172-0.114-0.28-0.186-0.99-0.643-2.96-0.608-3.03-0.606h-0.0063c-0.539-0.681-0.5-2.93-0.47-3.4a2.43 2.43 0 0 0-0.455 0.24 9.9 9.9 0 0 0-1.33 1.14 11.9 11.9 0 0 0-1.27 1.52v0.0021-0.0021a11.4 11.4 0 0 0-1.82 4.11c-0.0063 0.0294-0.489 2.14-0.251 3.23z" fill="url(#e)"/>
   <path d="m31.3 16.2a7.37 7.37 0 0 1 1.26 1.64 2.76 2.76 0 0 1 0.204 0.167c3.08 2.84 1.47 6.84 1.35 7.13 2.5-2.06 4.1-5.1 3.62-8.25-1.54-3.82-4.14-5.37-6.26-8.72a16.8 16.8 0 0 1-0.32-0.52 4.11 4.11 0 0 1-0.149-0.28 2.46 2.46 0 0 1-0.203-0.539 0.035 0.035 0 0 0-0.0308-0.035 0.0452 0.0452 0 0 0-0.0256 0l-0.0066 0.0035-0.0102 0.0042c-0.525 0.25-3.64 5.18 0.582 9.39z" fill="url(#f)"/>
   <path d="m26.1 14.3 1.8 0.114 1.09 0.388 0.91 0.357 1.05 0.749 0.987 1.04 0.343 0.647a8.21 8.21 0 0 1 0.222 0.145c0.0298 0.0206 0.0567 0.0413 0.0844 0.062a7.37 7.37 0 0 0-1.26-1.64c-4.22-4.22-1.11-9.14-0.582-9.39l7e-3 -0.0077c-3.41 2-4.57 5.69-4.68 7.54v0.0105z" fill="url(#g)"/>
   <path d="m21.7 15.3a7.99 7.99 0 0 1 0.28 0.186 6.28 6.28 0 0 1-0.0382-3.32 10.1 10.1 0 0 0-3.27 2.52c0.0668-0.0014 2.04-0.0371 3.03 0.606z" fill="url(#h)"/>
   <path d="m20.4 22.5s0.627-2.33 4.49-2.33c0.418 0 1.61-1.16 1.63-1.5a6.77 6.77 0 0 1-5.1-0.2 5.13 5.13 0 0 0-4.99 0.2 3.49 3.49 0 0 0 3.22 2.02c-0.252 2.22 0.922 4.8 3.76 6.16 0.0637 0.0304 0.123 0.0637 0.188 0.0928-1.66-0.856-3.03-2.47-3.2-4.44z" fill="url(#i)"/>
   <path d="m32.8 18a2.76 2.76 0 0 0-0.204-0.167c-0.0276-0.0206-0.0546-0.0413-0.0844-0.062a4.69 4.69 0 0 0-3.27-0.794c4.89 2.44 3.57 10.8-3.2 10.5a6.03 6.03 0 0 1-1.77-0.341 7.96 7.96 0 0 1-0.399-0.163c-0.0763-0.035-0.153-0.07-0.229-0.109l0.0095 6e-3c0.945 0.643 5.61 2.22 10.5-1.75l0.0077-0.0175c0.12-0.286 1.73-4.29-1.35-7.13z" fill="url(#j)"/>
   <path d="m39.1 16.2c-0.59-1.42-1.78-2.95-2.72-3.43a14.1 14.1 0 0 1 1.37 4.12l0.0028 0.0224c-1.54-3.82-4.14-5.37-6.26-8.72a15.9 15.9 0 0 1-0.32-0.519 4.48 4.48 0 0 1-0.15-0.28 2.47 2.47 0 0 1-0.202-0.537 0.035 0.035 0 0 0-0.0308-0.035 0.0483 0.0483 0 0 0-0.0256 0c-0.0021 0-0.0049 0.00315-7e-3 0.00385s-0.0067 0.00385-0.0098 0.00525l0.0056-0.0077c-3.41 2-4.57 5.7-4.68 7.55l0.0276-0.0049 1.8 0.114 1.01 0.36 0.99 0.385 1.05 0.749 0.986 1.04s0.34 0.637 0.344 0.648a4.65 4.65 0 0 0-3.05-0.65c4.89 2.44 3.57 10.8-3.2 10.5a6.04 6.04 0 0 1-1.77-0.34q-0.198-0.0742-0.399-0.164a5.05 5.05 0 0 1-0.229-0.109l0.0095 0.0059a7.99 7.99 0 0 1-0.198-0.0983c0.0634 0.0301 0.123 0.0634 0.188 0.0924-1.66-0.856-3.03-2.47-3.2-4.44 0 0 0.627-2.33 4.49-2.33 0.418 0 1.61-1.16 1.63-1.5-0.0049-0.11-2.37-1.05-3.29-1.96-0.492-0.484-0.726-0.718-0.933-0.894a3.99 3.99 0 0 0-0.352-0.265 6.28 6.28 0 0 1-0.0382-3.32 10.1 10.1 0 0 0-3.27 2.52h-0.0063c-0.538-0.681-0.5-2.93-0.47-3.4a2.46 2.46 0 0 0-0.455 0.24 9.88 9.88 0 0 0-1.33 1.14 11.9 11.9 0 0 0-1.27 1.52 11.4 11.4 0 0 0-1.82 4.11c-0.0067 0.0294-0.0119 0.0598-0.0182 0.0892-0.0256 0.12-0.14 0.726-0.157 0.856a15.8 15.8 0 0 0-0.2 1.89v0.07a13.6 13.6 0 0 0 27 2.29c0.0231-0.175 0.0416-0.35 0.062-0.525a13.9 13.9 0 0 0-0.882-6.81zm-1.35 0.696 0.0021 0.0147z" fill="url(#k)"/>
   <path d="m26.6 18.6s-0.0574 0.0238-0.164 0.0602c-0.265 0.448-1.21 1.3-1.57 1.3-3.86-0.0168-4.5 2.29-4.5 2.29a4.93 4.93 0 0 0 0.757 2.22 4.97 4.97 0 0 1-0.647-2.04s0.627-2.33 4.49-2.33c0.418 0 1.61-1.16 1.63-1.5z" fill="url(#l)"/>
   <path d="m37.8 16.9v-0.013c0-0.0102-0.0021-0.0161 0-0.013 0.0021 0.0031 0 0.0077 0.0024 0.0228a13.6 13.6 0 0 0-0.292-0.672c-0.035-0.0742-0.07-0.144-0.107-0.216-0.0682-0.14-0.136-0.28-0.206-0.412-0.0438-0.0822-0.0896-0.16-0.134-0.24-0.0658-0.117-0.131-0.235-0.198-0.35-0.0497-0.0826-0.101-0.162-0.151-0.242-0.0662-0.105-0.132-0.21-0.2-0.312-0.0536-0.0808-0.108-0.159-0.163-0.238-0.0676-0.0973-0.135-0.195-0.204-0.289-0.0567-0.0784-0.114-0.155-0.172-0.232-0.07-0.0914-0.138-0.183-0.207-0.272a23.5 23.5 0 0 0-0.181-0.228c-0.07-0.0872-0.14-0.175-0.212-0.261q-0.0928-0.112-0.187-0.224c-0.035-0.0402-0.0676-0.0816-0.102-0.122l0.0434 0.0532c-1.18-1.39-2.46-2.67-3.6-4.47a16.5 16.5 0 0 1-0.32-0.52 4.11 4.11 0 0 1-0.149-0.28 2.78 2.78 0 0 1-0.187-0.477c-0.0025-0.00875-0.0067-0.022-0.0081-0.029a1.58 1.58 0 0 1-0.0077-0.0315 0.035 0.035 0 0 0-0.0308-0.035 0.0452 0.0452 0 0 0-0.0256 0l-0.0066 0.00385a0.0945 0.0945 0 0 0-0.0102 0.00525 0.398 0.398 0 0 0-0.0822 0.0606 0.441 0.441 0 0 0-0.0196 0.0175 1.3 1.3 0 0 0-0.107 0.114l-0.0038 0.00385c-0.812 0.955-2.89 5.11 0.458 8.84-3.13-3.69-1.16-7.68-0.301-8.72a3.01 3.01 0 0 0 0.168 0.41 4.02 4.02 0 0 0 0.149 0.28c0.105 0.18 0.212 0.35 0.32 0.519 2.13 3.36 4.73 4.9 6.26 8.72 0-0.0147-0.0024-0.0203-0.0024-0.0224s0 0.0028 0.0018 0.013l0.0021 0.013a12.3 12.3 0 0 1-0.421 9.16 11.3 11.3 0 0 1-2.16 3.09 11.3 11.3 0 0 0 2.32-3.26 12.3 12.3 0 0 0 0.423-9.16z" fill="url(#m)"/>
   <path d="m30.8 6.82 7e-3 -0.0077c-3.07 1.8-4.32 4.97-4.61 6.93a10 10 0 0 1 4.1-6.33 1.9 1.9 0 0 1 0.502-0.596z" fill="url(#n)"/>
   <path d="m34.1 25.2 0.0077-0.0175c0.12-0.286 1.73-4.29-1.35-7.13a2.76 2.76 0 0 0-0.204-0.167c-0.0276-0.0206-0.0546-0.0413-0.0844-0.062a4.74 4.74 0 0 0-3.15-0.814h-0.0011a3.01 3.01 0 0 0-0.124 0.0192c4.83 2.41 3.6 10.7-2.97 10.5l0.0536 0.0032c6.66 0.262 7.97-7.91 3.35-10.5a4.92 4.92 0 0 1 2.57 0.743 2.86 2.86 0 0 1 0.0864 0.0592 2.59 2.59 0 0 1 0.21 0.158c3.19 2.71 1.73 6.78 1.62 7.07l-7e-3 0.0182" fill="url(#o)"/>
   <path d="m21.5 18.6a6.78 6.78 0 0 0 4.91 0.121 6.79 6.79 0 0 1-4.95-0.257 5.16 5.16 0 0 0-4.93 0.158l-0.0178 0.0116h-0.0017l-0.0147 0.0098-0.0112 0.0077-7e-3 0.0049h-0.0021l-0.0049 0.0035h-0.0018l0.0063 0.015v0.0021l0.0077 0.0175v0.0035l0.0116 0.0252v0.0021a2.8 2.8 0 0 0 0.0892 0.17 3.47 3.47 0 0 0 3.1 1.78c-0.245 2.15 0.853 4.65 3.51 6.03-2.54-1.46-3.61-4.12-3.31-6.24-1.96-0.0518-2.84-1.23-3.09-1.73a5.37 5.37 0 0 1 4.7-0.15z" fill="url(#p)"/>
   <path d="m22 15.5-0.0665-0.0388 0.07 0.0462zm-0.014-0.0497a6.29 6.29 0 0 1-0.022-3.26 9.9 9.9 0 0 0-3.14 2.38 10.3 10.3 0 0 1 2.87-2.02 6.36 6.36 0 0 0 0.299 2.9z" fill="url(#q)"/>
   <path d="m13.4 23-0.0108-0.0388a12.6 12.6 0 0 1-0.315-1.38 5.87 5.87 0 0 1 0-1.75 11.5 11.5 0 0 0-0.124 1.36v0.07a13.6 13.6 0 0 0 9.11 12.8 13.7 13.7 0 0 1-8.66-11.1z" fill="url(#r)"/>
   <path d="m13.3 21.6c-0.238-1.09 0.245-3.2 0.251-3.23a11.4 11.4 0 0 1 1.82-4.11v0.0021-0.0021a11.9 11.9 0 0 1 1.27-1.52 9.9 9.9 0 0 1 1.33-1.14 1.17 1.17 0 0 1 0.0574-0.035c-0.0049 1.03 0.0539 2.77 0.532 3.34h0.0063c0.0654-0.0035 2.04-0.0906 3.05 0.525 0.112 0.07 0.205 0.126 0.287 0.178a4.18 4.18 0 0 1 0.36 0.256c0.212 0.17 0.453 0.397 0.96 0.869 0.735 0.683 2.33 1.36 3.03 1.69-0.673-0.339-2.26-1.06-2.98-1.77-0.492-0.485-0.726-0.718-0.933-0.894a4.12 4.12 0 0 0-0.35-0.265c-0.0808-0.055-0.172-0.114-0.28-0.186-0.99-0.643-2.96-0.608-3.03-0.606h-0.0063c-0.492-0.623-0.503-2.55-0.477-3.24 0-0.0266 0-0.0508 0.0028-0.0735v-0.0444c0-0.0147 0-0.029 0.0024-0.0413 0 0-0.0024-0.0025-0.0056-0.0025h-0.0122l-0.0077 0.0028-0.0112 0.0042-0.0108 0.0046-0.013 0.0059-0.014 0.0067-0.014 7e-3 -0.0172 0.0084-0.0136 0.0074-0.0203 0.0105-0.0116 0.0063a6.75 6.75 0 0 0-0.302 0.175 9.9 9.9 0 0 0-1.33 1.14 11.9 11.9 0 0 0-1.27 1.53v0.0021-0.0021a11.4 11.4 0 0 0-1.82 4.11c-0.0063 0.0294-0.49 2.14-0.251 3.23 0.892 5.26 5.09 9.47 10.2 10.7-5.06-1.31-9.15-5.47-10-10.7z" fill="url(#s)"/>
   <path d="m39.1 16.2a8.32 8.32 0 0 0-2.38-3.22l-0.0242-0.0172a4.76 4.76 0 0 0-0.0805-0.0553q-0.015-0.0105-0.0304-0.02-0.0385-0.0245-0.0756-0.0472l-0.0294-0.0175a2.75 2.75 0 0 0-0.101-0.0556 12.3 12.3 0 0 1 0.107 0.215 11.8 11.8 0 0 1 0.0651 0.134 13.9 13.9 0 0 1 1.2 3.77l0.0028 0.0228c0.482 3.14-1.12 6.18-3.62 8.25l-0.0077 0.0175c-3.11 2.53-6.13 2.8-8.16 2.51 2.02 0.377 5.2 0.218 8.49-2.45l0.0074-0.0175c2.5-2.06 4.1-5.1 3.62-8.25l-0.0028-0.0228a13.6 13.6 0 0 0-0.99-3.31 8.98 8.98 0 0 1 1.49 2.12 13.5 13.5 0 0 1 1.26 6.65c-0.0105 0.173-0.0192 0.346-0.0326 0.518a13.5 13.5 0 0 1-12.7 11.8 13.9 13.9 0 0 1-2.68-0.109 13.6 13.6 0 0 0 15.6-11.1c0.0228-0.175 0.0413-0.348 0.0616-0.523a13.9 13.9 0 0 0-0.881-6.81zm-1.34 0.711v-0.013z" fill="url(#t)"/>
  </g>
  <g transform="translate(0,-10)">
   <rect x="9.93" y="37.6" width="32" height="23.1" rx="2.42" ry="2.39" color="#000000" display="block" fill="url(#linearGradient2288)" stroke="#a0670c"/>
   <rect x="11" y="38.6" width="29.8" height="21.1" rx="1.28" ry="1.28" color="#000000" display="block" fill="none" opacity=".481" stroke="url(#linearGradient2285)"/>
   <path d="m40.7 38.6 5.19 7.19h-39.5l4.66-7.2z" color="#000000" display="block" fill="url(#linearGradient2277)" stroke="#a0670c" stroke-linecap="round" stroke-linejoin="round"/>
   <path d="m39.5 38.7 4.45 6.06h-35.8l4.14-6.18z" color="#000000" display="block" fill="none" stroke="#f4e3ca"/>
  </g>
 </g>
</svg>
